HIERARCHY
ROOT Hips
{
	OFFSET 0.000000 0.000000 0.000000
	CHANNELS 6 Xposition Yposition Zposition Xrotation Yrotation Zrotation
	JOINT Thigh.L
	{
		OFFSET 0.054054 0.026765 -0.093000
		CHANNELS 3 Xrotation Yrotation Zrotation
		JOINT Shin.L
		{
			OFFSET 0.060604 0.006167 -0.407534
			CHANNELS 3 Xrotation Yrotation Zrotation
			JOINT Foot.L
			{
				OFFSET -0.041526 0.030926 -0.431552
				CHANNELS 3 Xrotation Yrotation Zrotation
				JOINT Toe.L
				{
					OFFSET 0.047604 -0.125533 -0.063646
					CHANNELS 3 Xrotation Yrotation Zrotation
					End Site
					{
						OFFSET 0.000000 0.050000 0.000000
					}
				}
			}
		}
	}
	JOINT Thigh.R
	{
		OFFSET -0.059134 0.021123 -0.105519
		CHANNELS 3 Xrotation Yrotation Zrotation
		JOINT Shin.R
		{
			OFFSET -0.049612 0.014046 -0.389039
			CHANNELS 3 Xrotation Yrotation Zrotation
			JOINT Foot.R
			{
				OFFSET 0.013856 0.019302 -0.440511
				CHANNELS 3 Xrotation Yrotation Zrotation
				JOINT Toe.R
				{
					OFFSET -0.039233 -0.126395 -0.063596
					CHANNELS 3 Xrotation Yrotation Zrotation
					End Site
					{
						OFFSET 0.000000 0.050000 0.000000
					}
				}
			}
		}
	}
	JOINT Spine
	{
		OFFSET -0.002537 0.027177 0.111301
		CHANNELS 3 Xrotation Yrotation Zrotation
		JOINT Spine.2
		{
			OFFSET 0.008527 0.006777 0.138122
			CHANNELS 3 Xrotation Yrotation Zrotation
			JOINT Chest
			{
				OFFSET -0.010479 -0.021506 0.055402
				CHANNELS 3 Xrotation Yrotation Zrotation
				JOINT Neck
				{
					OFFSET -0.011801 0.024818 0.168673
					CHANNELS 3 Xrotation Yrotation Zrotation
					JOINT Head
					{
						OFFSET 0.024898 -0.021990 0.173905
						CHANNELS 3 Xrotation Yrotation Zrotation
						End Site
						{
							OFFSET 0.000000 0.050000 0.000000
						}
					}
				}
				JOINT Clavicle.L
				{
					OFFSET 0.046743 0.004563 0.086671
					CHANNELS 3 Xrotation Yrotation Zrotation
					JOINT UpperArm.L
					{
						OFFSET 0.125579 0.013178 0.056696
						CHANNELS 3 Xrotation Yrotation Zrotation
						JOINT ForeArm.L
						{
							OFFSET 0.268068 0.042208 -0.074952
							CHANNELS 3 Xrotation Yrotation Zrotation
							JOINT Hand.L
							{
								OFFSET 0.271728 0.001012 0.021317
								CHANNELS 3 Xrotation Yrotation Zrotation
								JOINT Thumb1.L
								{
									OFFSET 0.154632 0.000445 0.009385
									CHANNELS 3 Xrotation Yrotation Zrotation
									JOINT Thumb2.L
									{
										OFFSET 0.029908 0.000111 0.002346
										CHANNELS 3 Xrotation Yrotation Zrotation
										End Site
										{
											OFFSET 0.024923 0.000093 0.001955
										}
									}
								}
								JOINT Index1.L
								{
									OFFSET 0.137632 0.000445 0.009385
									CHANNELS 3 Xrotation Yrotation Zrotation
									JOINT Index2.L
									{
										OFFSET 0.029908 0.000111 0.002346
										CHANNELS 3 Xrotation Yrotation Zrotation
										JOINT Index3.L
										{
											OFFSET 0.021932 0.000082 0.001721
											CHANNELS 3 Xrotation Yrotation Zrotation
											End Site
											{
												OFFSET 0.017945 0.000067 0.001408
											}
										}
									}
								}
								JOINT Middle1.L
								{
									OFFSET 0.119632 0.000445 0.009385
									CHANNELS 3 Xrotation Yrotation Zrotation
									JOINT Middle2.L
									{
										OFFSET 0.030905 0.000115 0.002424
										CHANNELS 3 Xrotation Yrotation Zrotation
										JOINT Middle3.L
										{
											OFFSET 0.021932 0.000082 0.001721
											CHANNELS 3 Xrotation Yrotation Zrotation
											End Site
											{
												OFFSET 0.017945 0.000067 0.001408
											}
										}
									}
								}
								JOINT Ring1.L
								{
									OFFSET 0.101632 0.000445 0.009385
									CHANNELS 3 Xrotation Yrotation Zrotation
									JOINT Ring2.L
									{
										OFFSET 0.028911 0.000108 0.002268
										CHANNELS 3 Xrotation Yrotation Zrotation
										JOINT Ring3.L
										{
											OFFSET 0.019939 0.000074 0.001564
											CHANNELS 3 Xrotation Yrotation Zrotation
											End Site
											{
												OFFSET 0.016948 0.000063 0.001330
											}
										}
									}
								}
								JOINT Pinky1.L
								{
									OFFSET 0.085632 0.000445 0.009385
									CHANNELS 3 Xrotation Yrotation Zrotation
									JOINT Pinky2.L
									{
										OFFSET 0.023926 0.000089 0.001877
										CHANNELS 3 Xrotation Yrotation Zrotation
										JOINT Pinky3.L
										{
											OFFSET 0.016948 0.000063 0.001330
											CHANNELS 3 Xrotation Yrotation Zrotation
											End Site
											{
												OFFSET 0.013957 0.000052 0.001095
											}
										}
									}
								}
							}
						}
					}
				}
				JOINT Clavicle.R
				{
					OFFSET -0.047372 0.010608 0.085690
					CHANNELS 3 Xrotation Yrotation Zrotation
					JOINT UpperArm.R
					{
						OFFSET -0.109019 0.009259 0.053228
						CHANNELS 3 Xrotation Yrotation Zrotation
						JOINT ForeArm.R
						{
							OFFSET -0.286113 0.027546 -0.040100
							CHANNELS 3 Xrotation Yrotation Zrotation
							JOINT Hand.R
							{
								OFFSET -0.268034 0.014423 -0.005854
								CHANNELS 3 Xrotation Yrotation Zrotation
								JOINT Thumb1.R
								{
									OFFSET -0.154798 0.006447 -0.002617
									CHANNELS 3 Xrotation Yrotation Zrotation
									JOINT Thumb2.R
									{
										OFFSET -0.029950 0.001612 -0.000654
										CHANNELS 3 Xrotation Yrotation Zrotation
										End Site
										{
											OFFSET -0.024958 0.001343 -0.000545
										}
									}
								}
								JOINT Index1.R
								{
									OFFSET -0.137798 0.006447 -0.002617
									CHANNELS 3 Xrotation Yrotation Zrotation
									JOINT Index2.R
									{
										OFFSET -0.029950 0.001612 -0.000654
										CHANNELS 3 Xrotation Yrotation Zrotation
										JOINT Index3.R
										{
											OFFSET -0.021963 0.001182 -0.000480
											CHANNELS 3 Xrotation Yrotation Zrotation
											End Site
											{
												OFFSET -0.017970 0.000967 -0.000392
											}
										}
									}
								}
								JOINT Middle1.R
								{
									OFFSET -0.119798 0.006447 -0.002617
									CHANNELS 3 Xrotation Yrotation Zrotation
									JOINT Middle2.R
									{
										OFFSET -0.030948 0.001665 -0.000676
										CHANNELS 3 Xrotation Yrotation Zrotation
										JOINT Middle3.R
										{
											OFFSET -0.021963 0.001182 -0.000480
											CHANNELS 3 Xrotation Yrotation Zrotation
											End Site
											{
												OFFSET -0.017970 0.000967 -0.000392
											}
										}
									}
								}
								JOINT Ring1.R
								{
									OFFSET -0.101798 0.006447 -0.002617
									CHANNELS 3 Xrotation Yrotation Zrotation
									JOINT Ring2.R
									{
										OFFSET -0.028951 0.001558 -0.000632
										CHANNELS 3 Xrotation Yrotation Zrotation
										JOINT Ring3.R
										{
											OFFSET -0.019966 0.001074 -0.000436
											CHANNELS 3 Xrotation Yrotation Zrotation
											End Site
											{
												OFFSET -0.016971 0.000913 -0.000371
											}
										}
									}
								}
								JOINT Pinky1.R
								{
									OFFSET -0.085798 0.006447 -0.002617
									CHANNELS 3 Xrotation Yrotation Zrotation
									JOINT Pinky2.R
									{
										OFFSET -0.023960 0.001289 -0.000523
										CHANNELS 3 Xrotation Yrotation Zrotation
										JOINT Pinky3.R
										{
											OFFSET -0.016971 0.000913 -0.000371
											CHANNELS 3 Xrotation Yrotation Zrotation
											End Site
											{
												OFFSET -0.013976 0.000752 -0.000305
											}
										}
									}
								}
							}
						}
					}
				}
			}
		}
	}
}
MOTION
Frames: 7
Frame Time: 0.03333333
0.179449 -0.338476 1.039104 -9.473677 -3.434091 29.816999 -30.532477 -31.147419 0.634507 76.805776 6.880696 -6.809964 -27.210845 -0.436436 4.551074 0.391263 0.933918 -1.064812 -57.192905 23.441476 10.394456 66.078526 -5.826027 7.260013 -11.116879 -4.809374 -0.648278 -2.060548 -2.911229 0.425218 45.573767 -5.045926 -3.480856 -10.018751 -3.915768 -3.072904 3.174323 -0.851029 -2.575414 -1.410825 2.094777 2.809498 -6.146984 -2.538902 -3.621974 -13.752092 3.952154 -32.188774 0.318732 30.350108 -55.467679 -10.269464 -4.155936 -41.595477 -18.277646 -8.912350 -5.662232 0.000000 0.000000 0.000000 0.000000 0.000000 0.000000 0.000000 0.000000 0.000000 0.000000 0.000000 0.000000 0.000000 0.000000 0.000000 0.000000 0.000000 0.000000 0.000000 0.000000 0.000000 0.000000 0.000000 0.000000 0.000000 0.000000 0.000000 0.000000 0.000000 0.000000 0.000000 0.000000 0.000000 0.000000 0.000000 0.000000 0.000000 0.000000 0.000000 0.000000 0.000000 0.000000 -7.159259 -7.105575 27.758718 -17.745621 -17.827350 28.154966 -27.683981 -2.064064 19.954619 -19.013009 3.442955 2.199991 0.000000 0.000000 0.000000 0.000000 0.000000 0.000000 0.000000 0.000000 0.000000 0.000000 0.000000 0.000000 0.000000 0.000000 0.000000 0.000000 0.000000 0.000000 0.000000 0.000000 0.000000 0.000000 0.000000 0.000000 0.000000 0.000000 0.000000 0.000000 0.000000 0.000000 0.000000 0.000000 0.000000 0.000000 0.000000 0.000000 0.000000 0.000000 0.000000 0.000000 0.000000 0.000000
0.185984 -0.336631 1.037684 -9.416753 -3.905397 31.102943 -31.778527 -31.443517 0.137549 77.551673 7.074057 -6.953261 -25.841271 0.365320 4.175076 0.411408 0.958036 -1.036456 -57.584164 24.169947 10.848181 67.457041 -5.947221 6.951236 -10.978123 -4.692448 -0.665223 -2.086527 -2.862855 0.483132 46.274234 -4.979914 -3.269672 -9.874112 -3.855478 -3.103262 3.075612 -0.808056 -2.481628 -0.925178 2.217500 3.084268 -5.709111 -2.458242 -3.709075 -13.401016 4.157955 -32.512464 0.870913 30.590452 -55.331276 -8.532473 -3.945644 -40.001483 -17.339662 -9.481124 -5.629600 0.000000 0.000000 0.000000 0.000000 0.000000 0.000000 0.000000 0.000000 0.000000 0.000000 0.000000 0.000000 0.000000 0.000000 0.000000 0.000000 0.000000 0.000000 0.000000 0.000000 0.000000 0.000000 0.000000 0.000000 0.000000 0.000000 0.000000 0.000000 0.000000 0.000000 0.000000 0.000000 0.000000 0.000000 0.000000 0.000000 0.000000 0.000000 0.000000 0.000000 0.000000 0.000000 -7.230040 -7.299893 28.049727 -17.321087 -19.330829 28.781145 -27.639141 -1.845771 18.879272 -19.126456 4.299627 2.258950 0.000000 0.000000 0.000000 0.000000 0.000000 0.000000 0.000000 0.000000 0.000000 0.000000 0.000000 0.000000 0.000000 0.000000 0.000000 0.000000 0.000000 0.000000 0.000000 0.000000 0.000000 0.000000 0.000000 0.000000 0.000000 0.000000 0.000000 0.000000 0.000000 0.000000 0.000000 0.000000 0.000000 0.000000 0.000000 0.000000 0.000000 0.000000 0.000000 0.000000 0.000000 0.000000
0.195525 -0.335213 1.036503 -9.406964 -4.381168 32.121060 -32.817044 -31.728872 -0.290918 77.953434 7.047133 -7.287701 -24.605727 1.013844 3.857715 0.360743 0.913733 -1.010844 -57.834885 24.539172 11.039352 68.541261 -5.908469 6.894019 -11.232898 -4.451100 -0.800312 -1.952299 -2.970908 0.479344 46.716279 -5.041044 -3.141622 -9.948157 -3.762235 -2.982551 3.076188 -0.806447 -2.414185 -0.375234 2.396612 3.752133 -5.199953 -2.132687 -3.710451 -13.239187 4.251938 -32.545465 1.365849 31.005627 -55.189715 -6.953512 -3.516607 -38.332450 -17.222802 -9.755962 -5.912438 0.000000 0.000000 0.000000 0.000000 0.000000 0.000000 0.000000 0.000000 0.000000 0.000000 0.000000 0.000000 0.000000 0.000000 0.000000 0.000000 0.000000 0.000000 0.000000 0.000000 0.000000 0.000000 0.000000 0.000000 0.000000 0.000000 0.000000 0.000000 0.000000 0.000000 0.000000 0.000000 0.000000 0.000000 0.000000 0.000000 0.000000 0.000000 0.000000 0.000000 0.000000 0.000000 -7.378365 -7.465169 28.212494 -16.596247 -20.672197 29.506889 -27.712353 -1.903326 17.830580 -19.643405 5.240864 2.710931 0.000000 0.000000 0.000000 0.000000 0.000000 0.000000 0.000000 0.000000 0.000000 0.000000 0.000000 0.000000 0.000000 0.000000 0.000000 0.000000 0.000000 0.000000 0.000000 0.000000 0.000000 0.000000 0.000000 0.000000 0.000000 0.000000 0.000000 0.000000 0.000000 0.000000 0.000000 0.000000 0.000000 0.000000 0.000000 0.000000 0.000000 0.000000 0.000000 0.000000 0.000000 0.000000
0.203600 -0.334398 1.035697 -9.427533 -4.743851 33.156824 -33.989108 -32.051311 -0.770255 78.407401 7.025981 -7.493425 -23.255208 1.685300 3.553071 0.303644 0.829150 -1.032271 -57.658441 25.018600 10.979244 69.102771 -5.972530 6.761288 -11.962837 -4.189931 -0.800943 -1.923275 -2.949517 0.496077 46.907481 -4.925537 -2.876586 -9.915277 -3.769352 -2.876699 3.103038 -0.798171 -2.275088 0.239802 2.520928 4.383801 -4.802220 -1.841574 -3.805185 -13.039993 4.315003 -32.405908 1.922002 31.443888 -54.960110 -5.124800 -3.403796 -37.358992 -15.960373 -9.885623 -6.149239 0.000000 0.000000 0.000000 0.000000 0.000000 0.000000 0.000000 0.000000 0.000000 0.000000 0.000000 0.000000 0.000000 0.000000 0.000000 0.000000 0.000000 0.000000 0.000000 0.000000 0.000000 0.000000 0.000000 0.000000 0.000000 0.000000 0.000000 0.000000 0.000000 0.000000 0.000000 0.000000 0.000000 0.000000 0.000000 0.000000 0.000000 0.000000 0.000000 0.000000 0.000000 0.000000 -7.266504 -7.690405 28.269115 -16.083579 -21.786052 29.954029 -27.107975 -1.944018 16.974188 -19.318509 5.747043 2.871729 0.000000 0.000000 0.000000 0.000000 0.000000 0.000000 0.000000 0.000000 0.000000 0.000000 0.000000 0.000000 0.000000 0.000000 0.000000 0.000000 0.000000 0.000000 0.000000 0.000000 0.000000 0.000000 0.000000 0.000000 0.000000 0.000000 0.000000 0.000000 0.000000 0.000000 0.000000 0.000000 0.000000 0.000000 0.000000 0.000000 0.000000 0.000000 0.000000 0.000000 0.000000 0.000000
0.214670 -0.333549 1.035801 -9.750716 -5.573310 34.377809 -35.043986 -32.224077 -1.545559 79.344758 6.985172 -8.147847 -20.819309 2.797816 3.538479 0.318831 0.751294 -0.996536 -57.467012 25.707713 11.258290 70.599843 -6.098401 6.593569 -12.101322 -3.905392 -0.915649 -1.959318 -2.876702 0.594176 47.831184 -4.635303 -2.599389 -9.774999 -3.673101 -3.013614 2.824518 -0.671684 -2.133647 0.848508 2.796315 4.944831 -4.297263 -1.810323 -3.760079 -12.736606 4.345197 -32.551392 2.219737 31.528525 -54.385403 -3.312469 -2.902727 -35.095537 -15.257514 -10.206651 -6.079415 0.000000 0.000000 0.000000 0.000000 0.000000 0.000000 0.000000 0.000000 0.000000 0.000000 0.000000 0.000000 0.000000 0.000000 0.000000 0.000000 0.000000 0.000000 0.000000 0.000000 0.000000 0.000000 0.000000 0.000000 0.000000 0.000000 0.000000 0.000000 0.000000 0.000000 0.000000 0.000000 0.000000 0.000000 0.000000 0.000000 0.000000 0.000000 0.000000 0.000000 0.000000 0.000000 -7.209628 -7.910651 28.616953 -14.929188 -23.412766 30.729877 -25.601762 -1.764686 16.446764 -19.584027 6.428088 2.806765 0.000000 0.000000 0.000000 0.000000 0.000000 0.000000 0.000000 0.000000 0.000000 0.000000 0.000000 0.000000 0.000000 0.000000 0.000000 0.000000 0.000000 0.000000 0.000000 0.000000 0.000000 0.000000 0.000000 0.000000 0.000000 0.000000 0.000000 0.000000 0.000000 0.000000 0.000000 0.000000 0.000000 0.000000 0.000000 0.000000 0.000000 0.000000 0.000000 0.000000 0.000000 0.000000
0.217082 -0.335057 1.035510 -9.951971 -5.757588 35.572162 -36.083993 -32.400278 -2.059606 79.871281 6.988388 -8.503112 -20.168731 3.096656 3.532569 0.300582 0.658444 -0.983602 -57.326046 26.104270 11.302804 71.517612 -5.974200 6.550085 -11.730586 -3.834644 -1.158124 -1.922939 -2.830236 0.640842 47.770881 -4.389899 -2.431806 -9.607434 -3.659775 -3.053099 2.731772 -0.630072 -2.055499 1.344579 2.966875 5.628148 -4.103901 -1.592377 -3.701400 -12.624822 4.150738 -32.465646 2.557091 31.585336 -53.969801 -2.020235 -2.292375 -33.864216 -15.371331 -10.274663 -5.986286 0.000000 0.000000 0.000000 0.000000 0.000000 0.000000 0.000000 0.000000 0.000000 0.000000 0.000000 0.000000 0.000000 0.000000 0.000000 0.000000 0.000000 0.000000 0.000000 0.000000 0.000000 0.000000 0.000000 0.000000 0.000000 0.000000 0.000000 0.000000 0.000000 0.000000 0.000000 0.000000 0.000000 0.000000 0.000000 0.000000 0.000000 0.000000 0.000000 0.000000 0.000000 0.000000 -7.095620 -8.098779 28.624832 -13.874930 -24.726323 31.449087 -24.877012 -2.038096 15.763938 -19.873051 6.893574 2.924941 0.000000 0.000000 0.000000 0.000000 0.000000 0.000000 0.000000 0.000000 0.000000 0.000000 0.000000 0.000000 0.000000 0.000000 0.000000 0.000000 0.000000 0.000000 0.000000 0.000000 0.000000 0.000000 0.000000 0.000000 0.000000 0.000000 0.000000 0.000000 0.000000 0.000000 0.000000 0.000000 0.000000 0.000000 0.000000 0.000000 0.000000 0.000000 0.000000 0.000000 0.000000 0.000000
0.217135 -0.334866 1.035119 -10.057097 -5.786406 36.718498 -37.228381 -32.643412 -2.535583 80.494434 6.926908 -8.889936 -19.425928 3.370509 3.437759 0.309860 0.593959 -0.958325 -57.379193 26.534014 11.328110 72.596252 -5.935682 6.365378 -11.218294 -3.745175 -1.198985 -1.827112 -2.827617 0.660732 47.767890 -4.170099 -2.109537 -9.338542 -3.558594 -2.990347 2.372737 -0.547328 -1.894760 2.218909 3.003321 6.436504 -3.769085 -1.364584 -3.482555 -12.340893 4.129293 -32.286225 2.628379 31.485792 -53.202398 -0.533913 -1.678004 -32.592822 -14.469313 -10.771831 -6.152722 0.000000 0.000000 0.000000 0.000000 0.000000 0.000000 0.000000 0.000000 0.000000 0.000000 0.000000 0.000000 0.000000 0.000000 0.000000 0.000000 0.000000 0.000000 0.000000 0.000000 0.000000 0.000000 0.000000 0.000000 0.000000 0.000000 0.000000 0.000000 0.000000 0.000000 0.000000 0.000000 0.000000 0.000000 0.000000 0.000000 0.000000 0.000000 0.000000 0.000000 0.000000 0.000000 -6.802410 -8.368693 28.687456 -12.812003 -25.965393 31.983358 -24.007935 -2.346879 15.194081 -19.792400 7.556720 3.450583 0.000000 0.000000 0.000000 0.000000 0.000000 0.000000 0.000000 0.000000 0.000000 0.000000 0.000000 0.000000 0.000000 0.000000 0.000000 0.000000 0.000000 0.000000 0.000000 0.000000 0.000000 0.000000 0.000000 0.000000 0.000000 0.000000 0.000000 0.000000 0.000000 0.000000 0.000000 0.000000 0.000000 0.000000 0.000000 0.000000 0.000000 0.000000 0.000000 0.000000 0.000000 0.000000
